<?xml version="1.0" encoding="UTF-8"?>
<svg width="135px" height="40px" viewBox="0 0 135 40" version="1.1" xmlns="http://www.w3.org/2000/svg" xmlns:xlink="http://www.w3.org/1999/xlink">
    <!-- Generator: Sketch 52.6 (67491) - http://www.bohemiancoding.com/sketch -->
    <title>play_market_en</title>
    <desc>Created with Sketch.</desc>
    <defs>
        <linearGradient x1="91.488428%" y1="4.9481245%" x2="-38.3517333%" y2="71.9074222%" id="linearGradient-1">
            <stop stop-color="#00A0FF" offset="0%"></stop>
            <stop stop-color="#00A1FF" offset="1%"></stop>
            <stop stop-color="#00BEFF" offset="26%"></stop>
            <stop stop-color="#00D2FF" offset="51%"></stop>
            <stop stop-color="#00DFFF" offset="76%"></stop>
            <stop stop-color="#00E3FF" offset="100%"></stop>
        </linearGradient>
        <linearGradient x1="107.684729%" y1="50%" x2="-130.640394%" y2="50%" id="linearGradient-2">
            <stop stop-color="#FFE000" offset="0%"></stop>
            <stop stop-color="#FFBD00" offset="41%"></stop>
            <stop stop-color="#FFA500" offset="78%"></stop>
            <stop stop-color="#FF9C00" offset="100%"></stop>
        </linearGradient>
        <linearGradient x1="86.219293%" y1="17.8768889%" x2="-50.1497903%" y2="194.702638%" id="linearGradient-3">
            <stop stop-color="#FF3A44" offset="0%"></stop>
            <stop stop-color="#C31162" offset="100%"></stop>
        </linearGradient>
        <linearGradient x1="-18.7537448%" y1="-54.0521474%" x2="42.1210306%" y2="24.9170664%" id="linearGradient-4">
            <stop stop-color="#32A071" offset="0%"></stop>
            <stop stop-color="#2DA771" offset="7%"></stop>
            <stop stop-color="#15CF74" offset="48%"></stop>
            <stop stop-color="#06E775" offset="80%"></stop>
            <stop stop-color="#00F076" offset="100%"></stop>
        </linearGradient>
    </defs>
    <g id="Page-1" stroke="none" stroke-width="1" fill="none" fill-rule="evenodd">
        <g id="play_market_badge_en" transform="translate(-10.000000, -10.000000)">
            <polygon id="Path" points="0 0 155 0 155 60 0 60"></polygon>
            <rect id="Rectangle" fill="#000000" x="10" y="10" width="135" height="40" rx="5"></rect>
            <path d="M57.42,20.24 C57.4543536,20.981231 57.1832676,21.7041269 56.67,22.24 C56.0964498,22.8358032 55.2964838,23.1594258 54.47,23.13 C53.2023403,23.1200788 52.0641482,22.3512162 51.5816918,21.1789127 C51.0992355,20.0066092 51.3665355,18.6593225 52.26,17.76 C52.840533,17.167326 53.6405789,16.8415154 54.47,16.86 C54.8927576,16.8585914 55.3113359,16.9436683 55.7,17.11 C56.0618545,17.2559536 56.3839841,17.4855566 56.64,17.78 L56.11,18.31 C55.7053468,17.8286764 55.0978848,17.5656899 54.47,17.6 C53.8388494,17.5969039 53.2336793,17.8510877 52.794036,18.3039391 C52.3543927,18.7567906 52.1182283,19.3692174 52.14,20 C52.1266019,20.9531897 52.6879765,21.8208395 53.5629333,22.1992583 C54.43789,22.5776771 55.4545926,22.3925456 56.14,21.73 C56.4477095,21.3965366 56.625183,20.9635013 56.64,20.51 L54.47,20.51 L54.47,19.79 L57.38,19.79 C57.4066731,19.9385141 57.4200594,20.0891096 57.42,20.24 Z M62,17.74 L59.3,17.74 L59.3,19.64 L61.76,19.64 L61.76,20.36 L59.3,20.36 L59.3,22.26 L62,22.26 L62,23 L58.5,23 L58.5,17 L62,17 L62,17.74 Z M65.28,23 L64.51,23 L64.51,17.74 L62.83,17.74 L62.83,17 L67,17 L67,17.74 L65.28,17.74 L65.28,23 Z M69.94,23 L69.94,17 L70.71,17 L70.71,23 L69.94,23 Z M74.13,23 L73.36,23 L73.36,17.74 L71.68,17.74 L71.68,17 L75.8,17 L75.8,17.74 L74.13,17.74 L74.13,23 Z M83.61,22.22 C82.3929898,23.4302279 80.4270102,23.4302279 79.21,22.22 C78.0302689,20.9712339 78.0302689,19.0187661 79.21,17.77 C79.7919984,17.1837467 80.5839158,16.854033 81.41,16.854033 C82.2360842,16.854033 83.0280016,17.1837467 83.61,17.77 C84.7947655,19.0167598 84.7947655,20.9732402 83.61,22.22 Z M79.78,21.72 C80.6813239,22.6175651 82.1386761,22.6175651 83.04,21.72 C83.9251983,20.7441711 83.9251983,19.2558289 83.04,18.28 C82.1386761,17.3824349 80.6813239,17.3824349 79.78,18.28 C78.8948017,19.2558289 78.8948017,20.7441711 79.78,21.72 Z M85.58,23 L85.58,17 L86.52,17 L89.44,21.67 L89.44,17 L90.21,17 L90.21,23 L89.41,23 L86.36,18.11 L86.36,23 L85.58,23 Z" id="Shape" stroke="#FFFFFF" stroke-width="0.2" fill="#FFFFFF" fill-rule="nonzero"></path>
            <path d="M78.14,31.75 C75.795425,31.7610334 73.9026739,33.6686811 73.9100209,36.0132706 C73.9173678,38.3578601 75.8220372,40.2536083 78.1666353,40.2499478 C80.5112334,40.2462873 82.409974,38.344601 82.41,36 C82.426473,34.8643738 81.9812316,33.7707097 81.1762551,32.9695037 C80.3712787,32.1682976 79.2755364,31.7281956 78.14,31.75 Z M78.14,38.58 C77.0832273,38.6539053 76.088673,38.0743135 75.6320213,37.1184371 C75.1753697,36.1625607 75.3494358,35.0246828 76.0709659,34.249038 C76.7924959,33.4733932 77.9148379,33.2176324 78.9011878,33.6040831 C79.8875378,33.9905338 80.5374189,34.9406494 80.54,36 C80.5725428,36.6626719 80.3360327,37.3103928 79.8841403,37.7961771 C79.432248,38.2819613 78.8032921,38.5646164 78.14,38.58 Z M68.83,31.75 C66.4840995,31.7555198 64.5863275,33.6607469 64.5900052,36.006651 C64.5936829,38.3525551 66.4974192,40.2518225 68.8433255,40.2499869 C71.1892318,40.2481513 73.0899935,38.345907 73.09,36 C73.106473,34.8643738 72.6612316,33.7707097 71.8562551,32.9695037 C71.0512787,32.1682976 69.9555364,31.7281956 68.82,31.75 L68.83,31.75 Z M68.83,38.58 C67.7726757,38.658073 66.7752215,38.0813713 66.3153517,37.1260966 C65.8554819,36.1708219 66.0268227,35.0314615 66.7473134,34.2536934 C67.467804,33.4759253 68.5907575,33.2180976 69.5783538,33.6036927 C70.5659501,33.9892877 71.2171215,34.9398011 71.22,36 C71.2525428,36.6626719 71.0160327,37.3103928 70.5641403,37.7961771 C70.112248,38.2819613 69.4832921,38.5646164 68.82,38.58 L68.83,38.58 Z M57.74,33.06 L57.74,34.86 L62.06,34.86 C61.9922634,35.7078038 61.6398446,36.5077945 61.06,37.13 C60.1860229,38.0202246 58.9765432,38.499658 57.73,38.45 C55.0790332,38.45 52.93,36.3009668 52.93,33.65 C52.93,30.9990332 55.0790332,28.85 57.73,28.85 C58.9477957,28.8301388 60.123762,29.2940521 61,30.14 L62.27,28.87 C61.0749196,27.6598581 59.4407184,26.9852541 57.74,27 C55.3189608,26.905779 53.0403936,28.1436718 51.801854,30.2260571 C50.5633145,32.3084423 50.5633145,34.9015577 51.801854,36.9839429 C53.0403936,39.0663282 55.3189608,40.304221 57.74,40.21 C59.471765,40.2882543 61.1527407,39.6136762 62.35,38.36 C63.3976757,37.2089216 63.9570431,35.6957612 63.91,34.14 C63.9132269,33.7609882 63.8797372,33.3825548 63.81,33.01 L57.74,33.06 Z M103.05,34.46 C102.51608,32.8892101 101.067928,31.811053 99.41,31.75 C98.3043635,31.7478383 97.2471451,32.2034076 96.4893794,33.0085336 C95.7316138,33.8136596 95.3408955,34.8965231 95.41,36 C95.385441,37.1292961 95.8211644,38.2200283 96.6170522,39.0215741 C97.4129399,39.8231198 98.5005582,40.2665588 99.63,40.25 C101.050858,40.257659 102.380643,39.5514455 103.17,38.37 L101.72,37.37 C101.279746,38.1039422 100.485856,38.552167 99.63,38.55 C98.7435914,38.5837851 97.9266413,38.0721998 97.57,37.26 L103.26,34.91 L103.05,34.46 Z M97.25,35.88 C97.2090519,35.2551643 97.4213257,34.640145 97.8389667,34.1735911 C98.2566076,33.7070373 98.8444602,33.4282216 99.47,33.4 C100.12937,33.3565516 100.751066,33.7106826 101.05,34.3 L97.25,35.88 Z M92.63,40 L94.5,40 L94.5,27.5 L92.63,27.5 L92.63,40 Z M89.57,32.7 L89.5,32.7 C88.9299621,32.0626768 88.1150572,31.69888 87.26,31.7 C84.9901469,31.8100717 83.2063371,33.6824796 83.2063371,35.955 C83.2063371,38.2275204 84.9901469,40.0999283 87.26,40.21 C88.117829,40.2244237 88.9380159,39.8582688 89.5,39.21 L89.56,39.21 L89.56,39.82 C89.56,41.45 88.69,42.32 87.29,42.32 C86.336303,42.2976774 85.4907281,41.7010334 85.15,40.81 L83.52,41.49 C84.1476816,43.016811 85.6392308,44.0098583 87.29,44 C89.48,44 91.29,42.71 91.29,39.57 L91.29,32 L89.57,32 L89.57,32.7 Z M87.43,38.58 C86.0928876,38.4621598 85.0673763,37.342295 85.0673763,36 C85.0673763,34.657705 86.0928876,33.5378402 87.43,33.42 C88.0761196,33.4531575 88.6814859,33.7457702 89.1088498,34.2314965 C89.5362137,34.7172228 89.749373,35.3549169 89.7,36 C89.7551348,36.6480494 89.5426575,37.2904311 89.1119703,37.7777877 C88.6812831,38.2651443 88.0699104,38.5550138 87.42,38.58 L87.43,38.58 Z M111.81,27.5 L107.34,27.5 L107.34,40 L109.21,40 L109.21,35.26 L111.82,35.26 C113.272684,35.3643638 114.661974,34.648509 115.42013,33.404973 C116.178286,32.161437 116.178286,30.598563 115.42013,29.355027 C114.661974,28.111491 113.272684,27.3956362 111.82,27.5 L111.81,27.5 Z M111.81,33.5 L109.2,33.5 L109.2,29.24 L111.85,29.24 C113.034651,29.24 113.995,30.2003492 113.995,31.385 C113.995,32.5696508 113.034651,33.53 111.85,33.53 L111.81,33.5 Z M123.34,31.7 C121.948713,31.6168389 120.640687,32.367088 120.01,33.61 L121.67,34.3 C122.004406,33.6836682 122.671125,33.3228556 123.37,33.38 C123.849528,33.3239946 124.331454,33.4629701 124.707528,33.7657102 C125.083603,34.0684503 125.322299,34.5095749 125.37,34.99 L125.37,35.12 C124.769393,34.8019991 124.099592,34.6371252 123.42,34.64 C121.63,34.64 119.82,35.64 119.82,37.45 C119.855688,38.2297088 120.20524,38.9618295 120.789131,39.4797974 C121.373022,39.9977652 122.141598,40.2575326 122.92,40.2 C123.879229,40.2688831 124.799569,39.8087132 125.32,39 L125.38,39 L125.38,40 L127.18,40 L127.18,35.19 C127.18,33 125.52,31.73 123.39,31.73 L123.34,31.7 Z M123.11,38.55 C122.5,38.55 121.65,38.24 121.65,37.49 C121.65,36.49 122.71,36.16 123.65,36.16 C124.244042,36.1453419 124.831131,36.2903874 125.35,36.58 C125.220696,37.699415 124.286524,38.5525405 123.16,38.58 L123.11,38.55 Z M133.74,32 L131.6,37.42 L131.54,37.42 L129.32,32 L127.32,32 L130.65,39.58 L128.75,43.79 L130.7,43.79 L135.82,32 L133.74,32 Z M116.93,40 L118.8,40 L118.8,27.5 L116.93,27.5 L116.93,40 Z" id="Shape" fill="#FFFFFF" fill-rule="nonzero"></path>
            <path d="M20.44,17.54 C20.114065,17.9311083 19.9495537,18.4317949 19.98,18.94 L19.98,41.06 C19.9495537,41.5682051 20.114065,42.0688917 20.44,42.46 L20.51,42.53 L32.9,30.15 L32.9,29.86 L20.51,17.47 L20.44,17.54 Z" id="Path" fill="url(#linearGradient-1)"></path>
            <path d="M37,34.28 L32.9,30.15 L32.9,29.86 L37,25.72 L37.09,25.77 L42,28.56 C43.4,29.35 43.4,30.65 42,31.45 L37.11,34.23 L37,34.28 Z" id="Path" fill="url(#linearGradient-2)"></path>
            <path d="M37.12,34.22 L32.9,30 L20.44,42.46 C21.0287177,42.9775224 21.902429,43.0027256 22.52,42.52 L37.13,34.22" id="Path" fill="url(#linearGradient-3)"></path>
            <path d="M37.12,25.78 L22.51,17.48 C21.892429,16.9972744 21.0187177,17.0224776 20.43,17.54 L32.9,30 L37.12,25.78 Z" id="Path" fill="url(#linearGradient-4)"></path>
            <path d="M37,34.13 L22.51,42.38 C21.9170385,42.8233364 21.1029615,42.8233364 20.51,42.38 L20.44,42.45 L20.51,42.52 C21.1018458,42.9666792 21.9181542,42.9666792 22.51,42.52 L37.12,34.22 L37,34.13 Z" id="Path" fill="#000000" opacity="0.2"></path>
            <path d="M20.44,42.32 C20.114065,41.9288917 19.9495537,41.4282051 19.98,40.92 L19.98,41.07 C19.9495537,41.5782051 20.114065,42.0788917 20.44,42.47 L20.51,42.4 L20.44,42.32 Z M42,31.3 L37,34.13 L37.09,34.22 L42,31.44 C42.5670701,31.1736132 42.9484684,30.6243997 43,30 C42.8860295,30.5648379 42.516706,31.0449585 42,31.3 Z" id="Shape" fill="#000000" fill-rule="nonzero" opacity="0.12"></path>
            <path d="M22.51,17.62 L42,28.7 C42.516706,28.9550415 42.8860295,29.4351621 43,30 C42.9484684,29.3756003 42.5670701,28.8263868 42,28.56 L22.51,17.48 C21.11,16.69 19.97,17.35 19.97,18.95 L19.97,19.1 C20,17.49 21.12,16.83 22.51,17.62 Z" id="Path" fill="#FFFFFF" opacity="0.25"></path>
        </g>
    </g>
</svg>